<svg width="24" height="34" viewBox="0 0 24 34" fill="none" xmlns="http://www.w3.org/2000/svg">
<path fill-rule="evenodd" clip-rule="evenodd" d="M21.744 14.3623V17.3773L19.1302 18.8855L17.6227 21.497H17.2395C17.2395 21.4978 17.2402 21.4993 17.2402 21.5V32.75C17.2402 32.753 17.2387 32.7553 17.2387 32.7583C17.2417 32.9488 17.172 33.1408 17.0265 33.2863C16.881 33.4318 16.689 33.5015 16.4977 33.4985C16.4955 33.4985 16.4932 33.5 16.4902 33.5C16.2502 33.5 16.0455 33.38 15.909 33.2038L11.9902 29.285L8.07147 33.2038C7.93497 33.38 7.73097 33.5 7.49022 33.5C7.48722 33.5 7.48497 33.4985 7.48272 33.4985C7.29147 33.5015 7.09947 33.4318 6.95397 33.2863C6.80922 33.1408 6.73872 32.9488 6.74172 32.7583C6.74172 32.7553 6.74022 32.753 6.74022 32.75V21.5C6.74022 21.4993 6.74097 21.4978 6.74097 21.497H6.36072L4.85172 18.8855L2.23872 17.3773V14.3623L0.730469 11.7508L2.23872 9.13853V6.12128L4.85172 4.61153L6.36072 2.00229H9.37947L11.9895 0.493286L14.6025 2.00229H17.6212L19.1287 4.61153L21.7425 6.12128V9.13778L23.25 11.7508L21.744 14.3623ZM8.24022 21.5V30.9643L11.3827 27.8218C11.4067 27.7865 11.4225 27.746 11.454 27.7138C11.6017 27.5668 11.7967 27.4985 11.9902 27.503C12.1837 27.4985 12.3787 27.5668 12.5265 27.7138C12.558 27.746 12.573 27.7865 12.5977 27.8218L15.7402 30.9643V21.5C15.7402 21.4993 15.741 21.4978 15.741 21.497H14.6032L11.9902 23.0068L9.38022 21.497H8.23947C8.23947 21.4978 8.24022 21.4993 8.24022 21.5ZM20.2402 9.53903V6.98678L18.0292 5.70953L16.755 3.50228H14.2005L11.9917 2.22654L9.78447 3.50228H7.22997L5.95422 5.70878L3.74247 6.98603V9.53903L2.46672 11.7508L3.74247 13.961V16.511L5.95422 17.7875L7.22997 19.9963H9.78372L11.991 21.272L14.1997 19.9963H16.7535L18.0277 17.7875L20.2395 16.511V13.9618L21.5145 11.7508L20.2402 9.53903Z" fill="white"/>
</svg>
