<svg width="30" height="34" viewBox="0 0 30 34" fill="none" xmlns="http://www.w3.org/2000/svg">
<path fill-rule="evenodd" clip-rule="evenodd" d="M24 12.5C24 16.6925 21.1297 20.204 17.25 21.2045V29H21.75C22.1647 29 22.5 29.336 22.5 29.75C22.5 30.1647 22.1647 30.5 21.75 30.5H8.25C7.83525 30.5 7.5 30.1647 7.5 29.75C7.5 29.336 7.83525 29 8.25 29H12.75V21.2045C8.87025 20.204 6 16.6925 6 12.5C3.1005 12.5 0.75 10.1495 0.75 7.25V5.75C0.75 5.336 1.08525 5 1.5 5H6V4.25C6 3.00725 4.99275 2 3.75 2C3.33525 2 3 1.664 3 1.25C3 0.836 3.33525 0.5 3.75 0.5H26.25C26.6647 0.5 27 0.836 27 1.25C27 1.664 26.6647 2 26.25 2C25.0072 2 24 3.00725 24 4.25V5H28.5C28.9147 5 29.25 5.336 29.25 5.75V7.25C29.25 10.1495 26.8995 12.5 24 12.5ZM14.25 29H15.75V21.4617C15.5025 21.4827 15.2535 21.5 15 21.5C14.7465 21.5 14.4975 21.4827 14.25 21.4617V29ZM2.25 6.5V7.25C2.25 9.3215 3.9285 11 6 11V6.5H2.25ZM6.7335 2C7.2075 2.6285 7.5 3.40175 7.5 4.25V12.5C7.5 16.6422 10.8577 20 15 20C19.1415 20 22.5 16.6422 22.5 12.5V4.25C22.5 3.40175 22.7925 2.6285 23.2665 2H6.7335ZM27.75 6.5H24V11C26.0715 11 27.75 9.3215 27.75 7.25V6.5ZM6 32H24C24.4147 32 24.75 32.336 24.75 32.75C24.75 33.1647 24.4147 33.5 24 33.5H6C5.58525 33.5 5.25 33.1647 5.25 32.75C5.25 32.336 5.58525 32 6 32Z" fill="white"/>
</svg>
