<svg width="24" height="36" viewBox="0 0 24 36" fill="none" xmlns="http://www.w3.org/2000/svg">
<path fill-rule="evenodd" clip-rule="evenodd" d="M22.5 19.5C22.464 19.5 22.4302 19.4918 22.3942 19.4895C21.987 22.5473 20.352 25.2143 18 26.9843V32.25C18 33.9068 16.6567 35.25 15 35.25H7.5C5.84325 35.25 4.5 33.9068 4.5 32.25V26.9843C1.77225 24.9315 0 21.6765 0 18C0 14.3228 1.77225 11.0678 4.5 9.01575V3.75C4.5 2.09325 5.84325 0.75 7.5 0.75H15C16.6567 0.75 18 2.09325 18 3.75V9.01575C20.3527 10.7858 21.987 13.4528 22.3942 16.5105C22.4302 16.5083 22.464 16.5 22.5 16.5C23.328 16.5 24 17.172 24 18C24 18.828 23.328 19.5 22.5 19.5ZM6 32.25C6 33.078 6.672 33.75 7.5 33.75H15C15.828 33.75 16.5 33.078 16.5 32.25V27.9465C14.9317 28.7753 13.1467 29.25 11.25 29.25C9.35325 29.25 7.56825 28.7753 6 27.9465V32.25ZM16.5 3.75C16.5 2.922 15.828 2.25 15 2.25H7.5C6.672 2.25 6 2.922 6 3.75V8.0535C7.56825 7.224 9.35325 6.75 11.25 6.75C13.1467 6.75 14.9317 7.224 16.5 8.0535V3.75ZM11.25 8.25C5.865 8.25 1.5 12.615 1.5 18C1.5 23.385 5.865 27.75 11.25 27.75C16.635 27.75 21 23.385 21 18C21 12.615 16.635 8.25 11.25 8.25ZM12 20.112V24.75C12 25.1648 11.6647 25.5 11.25 25.5C10.8352 25.5 10.5 25.1648 10.5 24.75V20.112C9.6285 19.8023 9 18.978 9 18C9 17.6468 9.0885 17.3175 9.234 17.019L6.9645 14.7495C6.67875 14.4638 6.67875 13.9995 6.9645 13.7138C7.251 13.428 7.7145 13.428 8.00025 13.7138L10.2697 15.9833C10.5675 15.8385 10.8967 15.75 11.25 15.75C12.4927 15.75 13.5 16.758 13.5 18C13.5 18.9788 12.8722 19.8023 12 20.112ZM11.25 17.25C10.8352 17.25 10.5 17.5853 10.5 18C10.5 18.4148 10.8352 18.75 11.25 18.75C11.6647 18.75 12 18.4148 12 18C12 17.5853 11.6647 17.25 11.25 17.25Z" fill="white"/>
</svg>
