<svg width="36" height="31" viewBox="0 0 36 31" fill="none" xmlns="http://www.w3.org/2000/svg">
<path fill-rule="evenodd" clip-rule="evenodd" d="M35.25 27C35.25 29.0715 33.5715 30.75 31.5 30.75H4.5C2.4285 30.75 0.75 29.0715 0.75 27V5.25001C0.75 3.59326 2.09325 2.25001 3.75 2.25001H18.8783L24.9525 0.0495089C25.3373 -0.0907411 25.7633 0.108009 25.9035 0.491259L26.5433 2.25001H29.25C30.9068 2.25001 32.25 3.59326 32.25 5.25001V6.75001C33.9068 6.75001 35.25 8.09326 35.25 9.75001V27ZM3.75 3.75001C2.922 3.75001 2.25 4.42201 2.25 5.25001C2.25 6.07801 2.922 6.75001 3.75 6.75001H6.33375H6.4755C6.48525 6.74626 6.49125 6.73801 6.501 6.73426L14.7375 3.75001H3.75ZM25.5585 3.88576L24.762 1.69276H24.7613L23.223 2.25001H23.2253L19.0898 3.75001H19.0823L10.803 6.75001H26.5995L25.5585 3.88576ZM30.75 5.25001C30.75 4.42201 30.078 3.75001 29.25 3.75001H27.0878L28.1783 6.75001H30.75V5.25001ZM32.25 8.25001H3.75C3.201 8.25001 2.6925 8.09176 2.25 7.83376V27C2.25 28.2428 3.258 29.25 4.5 29.25H31.5C32.7428 29.25 33.75 28.2428 33.75 27V21.75H30.75C29.0933 21.75 27.75 20.4068 27.75 18.75C27.75 17.0933 29.0933 15.75 30.75 15.75H33.75V9.75001C33.75 8.92201 33.078 8.25001 32.25 8.25001ZM33.75 20.25V17.25H30.75C29.922 17.25 29.25 17.922 29.25 18.75C29.25 19.578 29.922 20.25 30.75 20.25H33.75ZM30.75 18H32.25V19.5H30.75V18Z" fill="white"/>
</svg>
