<svg width="36" height="36" viewBox="0 0 36 36" fill="none" xmlns="http://www.w3.org/2000/svg">
<path d="M11.0607 15.9061C10.9348 15.9061 10.809 15.8583 10.7126 15.7619L8.82967 13.879H5.13334C5.00256 13.879 4.8774 13.8269 4.78529 13.7348L4.01115 12.9607C3.8192 12.7687 3.8192 12.4565 4.01115 12.2646C4.20311 12.0726 4.51529 12.0726 4.70725 12.2646L5.33725 12.8946H9.03357C9.16435 12.8946 9.28951 12.9466 9.38162 13.0387L11.0607 14.7178L13.4808 12.2976C13.7551 12.0234 14.12 11.8722 14.5081 11.8722H15.9151L16.0697 11.7168C16.2617 11.5242 16.5732 11.5242 16.7658 11.7161C16.9585 11.9081 16.9585 12.2196 16.7665 12.4122L16.4677 12.7118C16.3756 12.8046 16.2497 12.8566 16.119 12.8566H14.5081C14.3829 12.8566 14.2648 12.9051 14.1769 12.9937L11.4087 15.7619C11.3124 15.8576 11.1865 15.9061 11.0607 15.9061Z" fill="white"/>
<path d="M2.07176 10.8179C1.9459 10.8179 1.82004 10.7701 1.72371 10.6738L1.36652 10.3166C1.27441 10.2245 1.22238 10.0993 1.22238 9.96855L1.22168 5.13316C1.22168 5.00168 1.27441 4.87582 1.36723 4.78371L1.44387 4.70777C1.63652 4.51722 1.9466 4.51793 2.13855 4.70918L6.61113 9.18175L9.18105 6.61113L4.70848 2.13855C4.51652 1.9466 4.51652 1.63441 4.70848 1.44246L4.78512 1.36582C4.87722 1.27371 5.00238 1.22168 5.13316 1.22168L9.96785 1.22238C10.0986 1.22238 10.2238 1.27441 10.3159 1.36652L13.7338 4.78512C13.8259 4.87722 13.8779 5.00238 13.8779 5.13316V8.82949L14.8398 9.79066C15.0318 9.98261 15.0318 10.2948 14.8398 10.4868C14.6478 10.6787 14.3357 10.6787 14.1437 10.4868L13.0377 9.38074C12.9456 9.28863 12.8935 9.16347 12.8935 9.03269V5.33707L9.76394 2.20746L6.16816 2.20676L10.2252 6.26379C10.4171 6.45574 10.4171 6.76793 10.2252 6.95988L6.95918 10.2266C6.86707 10.3187 6.74191 10.3707 6.61113 10.3707C6.48035 10.3707 6.35519 10.3187 6.26308 10.2266L2.20605 6.16957L2.20676 9.76535L2.4198 9.97839C2.61176 10.1703 2.61176 10.4825 2.4198 10.6745C2.32418 10.7701 2.19762 10.8179 2.07176 10.8179Z" fill="white"/>
<path d="M3.17676 11.9229C3.04738 11.9229 2.92082 11.8701 2.82871 11.7787C2.7373 11.6873 2.68457 11.5607 2.68457 11.4307C2.68457 11.3983 2.68809 11.366 2.69441 11.3343C2.70074 11.3034 2.70988 11.2725 2.72254 11.2422C2.73449 11.2127 2.74996 11.1839 2.76754 11.1571C2.78582 11.1304 2.80621 11.1051 2.82871 11.0826C2.92082 10.9912 3.04738 10.9385 3.17676 10.9385C3.30613 10.9385 3.4334 10.9912 3.5248 11.0826C3.54801 11.1051 3.5684 11.1304 3.58598 11.1571C3.60355 11.1839 3.61902 11.2127 3.63168 11.2422C3.64363 11.2725 3.65277 11.3034 3.6591 11.3343C3.66543 11.366 3.66895 11.3983 3.66895 11.4307C3.66895 11.56 3.61621 11.6873 3.5248 11.7787C3.5023 11.8012 3.47699 11.8216 3.45027 11.8399C3.42355 11.8575 3.39473 11.8729 3.3652 11.8849C3.33566 11.8975 3.30473 11.9067 3.27309 11.913C3.24145 11.9193 3.2091 11.9229 3.17676 11.9229Z" fill="white"/>
<path d="M30.8659 34.7781L26.0312 34.7774C25.9005 34.7774 25.7753 34.7254 25.6832 34.6333L22.2646 31.2147C22.1725 31.1225 22.1205 30.9974 22.1205 30.8666V27.1703L21.6887 26.7386C21.4968 26.5466 21.4968 26.2344 21.6887 26.0425C21.8807 25.8505 22.1929 25.8505 22.3848 26.0425L22.9607 26.6183C23.0528 26.7104 23.1048 26.8356 23.1048 26.9664V30.6627L26.2352 33.7923L29.8302 33.793L25.7732 29.736C25.6811 29.6439 25.6291 29.5187 25.6291 29.3879C25.6291 29.2572 25.6811 29.132 25.7732 29.0399L29.0399 25.7739C29.2326 25.5819 29.5441 25.5819 29.736 25.7739L33.7923 29.8309L33.7916 26.2351L30.662 23.1055H26.9657C26.8349 23.1055 26.7098 23.0535 26.6177 22.9614L24.6623 21.006L21.4553 24.2122C21.1698 24.4977 20.864 24.7628 20.5455 25.0004C20.3275 25.1629 20.0188 25.1179 19.8564 24.9006C19.694 24.6826 19.739 24.374 19.9562 24.2115C20.2361 24.0027 20.5061 23.7686 20.7585 23.5161L24.3009 19.9738C24.3044 19.9703 24.3079 19.9668 24.3114 19.964L24.3234 19.9527C24.5167 19.7699 24.8212 19.7741 25.0089 19.9626L27.1682 22.1218H30.8645C30.9953 22.1218 31.1205 22.1739 31.2126 22.266L34.6305 25.6839C34.7226 25.776 34.7746 25.9011 34.7746 26.0319L34.7753 30.8666C34.7753 30.9974 34.7233 31.1225 34.6312 31.2147L34.5545 31.2913C34.4624 31.3834 34.3373 31.4354 34.2065 31.4354C34.0757 31.4354 33.9505 31.3834 33.8584 31.2913L29.3859 26.8187L26.8152 29.3886L31.2885 33.8619C31.3813 33.9547 31.4327 34.0806 31.4327 34.2114C31.4327 34.3422 31.3799 34.468 31.2864 34.5601L31.2098 34.6361C31.1205 34.7268 30.996 34.7781 30.8659 34.7781Z" fill="white"/>
<path d="M15.5195 26.6709C15.2474 26.6709 15.0273 26.4508 15.0273 26.1787C15.0273 25.9066 15.2474 25.6865 15.5195 25.6865C17.1079 25.6865 18.6836 25.162 19.957 24.2107C20.2375 24.0012 20.5075 23.7677 20.7599 23.5153L24.3023 19.9729C24.3058 19.9694 24.3093 19.9659 24.3128 19.9631L24.3198 19.9568L24.7537 19.523C25.1404 19.1362 25.3534 18.6222 25.3534 18.0752C25.3534 17.5282 25.1404 17.0142 24.7537 16.6275L23.4663 15.3401C23.2743 15.1481 23.2743 14.8359 23.4663 14.644C23.6582 14.452 23.9704 14.452 24.1623 14.644L25.4498 15.9314C26.0221 16.5037 26.3378 17.2652 26.3378 18.0752C26.3378 18.8852 26.0221 19.6467 25.4498 20.219L25.011 20.6578C25.0075 20.6613 25.004 20.6641 25.0005 20.6676L24.9934 20.674L21.456 24.2114C21.1705 24.4969 20.8647 24.7619 20.5462 24.9996C19.1048 26.0775 17.3195 26.6709 15.5195 26.6709Z" fill="white"/>
<path d="M22.6064 14.276C22.4771 14.276 22.3505 14.2233 22.2584 14.1319C22.2359 14.1094 22.2155 14.084 22.1972 14.0566C22.1797 14.0299 22.1642 14.0018 22.1522 13.9722C22.1396 13.942 22.1304 13.9111 22.1241 13.8801C22.1178 13.8485 22.1143 13.8154 22.1143 13.7838C22.1143 13.6544 22.167 13.5272 22.2584 13.4357C22.373 13.3211 22.5432 13.2691 22.7028 13.3015C22.7344 13.3078 22.7654 13.3169 22.7949 13.3296C22.8244 13.3415 22.8532 13.357 22.88 13.3746C22.9067 13.3922 22.932 13.4132 22.9545 13.4357C23.0459 13.5272 23.0986 13.6537 23.0986 13.7838C23.0986 13.8154 23.0958 13.8485 23.0895 13.8801C23.0832 13.9111 23.0733 13.942 23.0614 13.9722C23.0487 14.0018 23.0339 14.0299 23.0157 14.0566C22.9981 14.084 22.9777 14.1094 22.9545 14.1319C22.932 14.1544 22.9067 14.1747 22.88 14.193C22.8532 14.2106 22.8244 14.2261 22.7949 14.238C22.7654 14.2507 22.7344 14.2598 22.7028 14.2661C22.6711 14.2725 22.6388 14.276 22.6064 14.276Z" fill="white"/>
<path d="M13.7811 28.4089C13.6553 28.4089 13.5294 28.3611 13.4331 28.2648L7.93889 22.7706C7.74693 22.5786 7.74693 22.2664 7.93889 22.0745L9.83732 20.176V16.543C9.83732 16.1605 9.99271 15.7864 10.2634 15.5157L13.4816 12.2975C13.7558 12.0233 14.1208 11.8721 14.5089 11.8721H15.9158L16.51 11.2773C16.5465 11.2414 16.5965 11.1936 16.6506 11.1465C17.8473 10.0904 19.6684 10.1474 20.7976 11.2773L21.8664 12.346C22.0583 12.538 22.0583 12.8502 21.8664 13.0421C21.6744 13.2341 21.3622 13.2341 21.1703 13.0421L20.1015 11.9734C19.3379 11.2098 18.1075 11.1718 17.2996 11.8869C17.2975 11.889 17.2954 11.8904 17.2933 11.8925C17.2679 11.9136 17.2391 11.941 17.2025 11.9769L16.4685 12.7117C16.3764 12.8045 16.2505 12.8565 16.1197 12.8565H14.5089C14.3837 12.8565 14.2656 12.905 14.1777 12.9936L10.9595 16.2118C10.8716 16.299 10.8217 16.4199 10.8217 16.543V20.3799C10.8217 20.5107 10.7697 20.6359 10.6776 20.728L8.98303 22.4225L14.1292 27.5687C14.3211 27.7607 14.3211 28.0728 14.1292 28.2648C14.0329 28.3611 13.907 28.4089 13.7811 28.4089Z" fill="white"/>
<path d="M12.6554 31.6968C12.5247 31.6968 12.3995 31.6448 12.3074 31.5527L4.49357 23.7389C4.30162 23.5469 4.30162 23.2347 4.49357 23.0428L6.69998 20.8363C6.89193 20.6444 7.20412 20.6444 7.39607 20.8363L15.2099 28.6502C15.4019 28.8421 15.4019 29.1543 15.2099 29.3463L13.0035 31.5527C12.9114 31.6448 12.7862 31.6968 12.6554 31.6968ZM5.53771 23.3908L12.6554 30.5085L14.1658 28.9982L7.04732 21.8805L5.53771 23.3908Z" fill="white"/>
</svg>
