<svg width="36" height="36" viewBox="0 0 36 36" fill="none" xmlns="http://www.w3.org/2000/svg">
<path d="M30.9134 22.236H20.6914C20.4193 22.236 20.1992 22.0159 20.1992 21.7438C20.1992 21.4717 20.4193 21.2516 20.6914 21.2516H30.4205V18.3555H21.1836V19.1957C21.1836 19.4678 20.9635 19.6879 20.6914 19.6879C20.4193 19.6879 20.1992 19.4678 20.1992 19.1957V17.8633C20.1992 17.5912 20.4193 17.3711 20.6914 17.3711H30.9127C31.1848 17.3711 31.4049 17.5912 31.4049 17.8633V21.7438C31.4056 22.0152 31.1848 22.236 30.9134 22.236Z" fill="white"/>
<path d="M15.308 22.236H5.08594C4.81383 22.236 4.59375 22.0159 4.59375 21.7438V17.8633C4.59375 17.5912 4.81383 17.3711 5.08594 17.3711H8.9918C9.26391 17.3711 9.48398 17.5912 9.48398 17.8633C9.48398 18.1354 9.26391 18.3555 8.9918 18.3555H5.57813V21.2516H14.8151V18.3555H12.127C11.8549 18.3555 11.6348 18.1354 11.6348 17.8633C11.6348 17.5912 11.8549 17.3711 12.127 17.3711H15.3073C15.5794 17.3711 15.7995 17.5912 15.7995 17.8633V21.7438C15.8002 22.0152 15.5794 22.236 15.308 22.236Z" fill="white"/>
<path d="M30.9134 28.7116H20.6914C20.4193 28.7116 20.1992 28.4915 20.1992 28.2194V24.3389C20.1992 24.0668 20.4193 23.8467 20.6914 23.8467H30.9127C31.1848 23.8467 31.4049 24.0668 31.4049 24.3389V28.2194C31.4056 28.4915 31.1848 28.7116 30.9134 28.7116ZM21.1836 27.7272H30.4205V24.8311H21.1836V27.7272Z" fill="white"/>
<path d="M15.308 28.7116C15.0359 28.7116 14.8158 28.4915 14.8158 28.2194V24.8311H5.57813V27.7272H13.1002C13.3723 27.7272 13.5923 27.9473 13.5923 28.2194C13.5923 28.4915 13.3723 28.7116 13.1002 28.7116H5.08594C4.81383 28.7116 4.59375 28.4915 4.59375 28.2194V24.3389C4.59375 24.0668 4.81383 23.8467 5.08594 23.8467H15.3073C15.5794 23.8467 15.7995 24.0668 15.7995 24.3389V28.2194C15.8002 28.4915 15.5794 28.7116 15.308 28.7116Z" fill="white"/>
<path d="M30.9131 31.9462H5.08594C4.81383 31.9462 4.59375 31.7262 4.59375 31.4541V15.7758C4.59375 15.6197 4.66758 15.4727 4.79344 15.3799C6.86063 13.852 8.09461 11.4059 8.09461 8.83523V4.54688C8.09461 4.27477 8.31469 4.05469 8.5868 4.05469H12.5686C12.8407 4.05469 13.0608 4.27477 13.0608 4.54688C13.0608 7.27008 15.2763 9.48633 18.0002 9.48633C19.9275 9.48633 21.6916 8.35359 22.4939 6.6C22.6071 6.3525 22.8989 6.24422 23.1464 6.35742C23.3939 6.47062 23.5022 6.76242 23.389 7.00992C22.4264 9.11227 20.3114 10.4714 18.0002 10.4714C14.8995 10.4714 12.3478 8.07727 12.0968 5.03977H9.07899V8.83594C9.07899 11.6337 7.77539 14.2999 5.57883 16.0205V30.9626H30.4209V16.0198C29.3691 15.195 28.4993 14.1368 27.8981 12.9443C27.259 11.6759 26.9208 10.2548 26.9208 8.83594V5.03906H23.4312C23.1591 5.03906 22.939 4.81898 22.939 4.54688C22.939 4.27477 23.1591 4.05469 23.4312 4.05469H27.413C27.6851 4.05469 27.9052 4.27477 27.9052 4.54688V8.83523C27.9052 10.1016 28.2068 11.3686 28.777 12.5006C29.3473 13.6305 30.1875 14.6262 31.2063 15.3799C31.3315 15.4727 31.406 15.6197 31.406 15.7758V31.4541C31.4053 31.7262 31.1845 31.9462 30.9131 31.9462Z" fill="white"/>
<path d="M18 31.946C17.7279 31.946 17.5078 31.7259 17.5078 31.4538V9.97754C17.5078 9.70543 17.7279 9.48535 18 9.48535C18.2721 9.48535 18.4922 9.70543 18.4922 9.97754V31.4538C18.4922 31.7259 18.2721 31.946 18 31.946Z" fill="white"/>
<path d="M10.5234 18.3558C10.4911 18.3558 10.4588 18.3523 10.4271 18.346C10.3962 18.3397 10.3652 18.3298 10.335 18.3179C10.3055 18.3052 10.2766 18.2904 10.2499 18.2729C10.2232 18.2546 10.1979 18.2342 10.1754 18.2117C10.084 18.1196 10.0312 17.993 10.0312 17.8636C10.0312 17.8313 10.0348 17.7989 10.0411 17.7673C10.0474 17.7357 10.0566 17.7047 10.0692 17.6752C10.0812 17.6457 10.0966 17.6168 10.1142 17.5901C10.1318 17.5634 10.1529 17.5381 10.1754 17.5156C10.1979 17.4924 10.2232 17.472 10.2499 17.4544C10.2766 17.4361 10.3055 17.4214 10.335 17.4087C10.3652 17.3968 10.3962 17.3869 10.4271 17.3806C10.4911 17.3679 10.5558 17.3679 10.6198 17.3806C10.6507 17.3869 10.6823 17.3968 10.7119 17.4087C10.7414 17.4214 10.7702 17.4361 10.797 17.4544C10.8237 17.472 10.849 17.4924 10.8715 17.5156C10.9629 17.607 11.0156 17.7343 11.0156 17.8636C11.0156 17.993 10.9629 18.1196 10.8715 18.2117C10.849 18.2342 10.8237 18.2546 10.797 18.2729C10.7702 18.2904 10.7414 18.3052 10.7119 18.3179C10.6823 18.3298 10.6507 18.3397 10.6198 18.346C10.5881 18.3523 10.5558 18.3558 10.5234 18.3558Z" fill="white"/>
<path d="M24.456 14.2285H21.4248C21.1527 14.2285 20.9326 14.0084 20.9326 13.7363C20.9326 13.4642 21.1527 13.2441 21.4248 13.2441H24.456C24.7281 13.2441 24.9482 13.4642 24.9482 13.7363C24.9482 14.0084 24.7274 14.2285 24.456 14.2285Z" fill="white"/>
<path d="M11.6055 14.2285C11.4754 14.2285 11.3488 14.1758 11.2574 14.0844C11.1653 13.9922 11.1133 13.8657 11.1133 13.7363C11.1133 13.6062 11.1653 13.4797 11.2574 13.3883C11.3713 13.2737 11.5422 13.2216 11.7011 13.2533C11.7327 13.2596 11.7637 13.2694 11.7932 13.2814C11.8234 13.294 11.8516 13.3088 11.8783 13.3271C11.905 13.3447 11.9303 13.3651 11.9535 13.3883C12.0449 13.4797 12.0977 13.6069 12.0977 13.7363C12.0977 13.8657 12.0449 13.9922 11.9535 14.0844C11.9303 14.1069 11.905 14.1272 11.8783 14.1455C11.8516 14.1631 11.8234 14.1786 11.7932 14.1905C11.7637 14.2032 11.7327 14.2123 11.7011 14.2187C11.6695 14.225 11.6371 14.2285 11.6055 14.2285Z" fill="white"/>
<path d="M13.4697 14.2285C13.4374 14.2285 13.405 14.225 13.3734 14.2187C13.3418 14.2123 13.3108 14.2032 13.2813 14.1905C13.2518 14.1786 13.2229 14.1631 13.1962 14.1455C13.1695 14.1272 13.1442 14.1069 13.1217 14.0844C13.0992 14.0612 13.0781 14.0365 13.0605 14.0091C13.0429 13.9824 13.0275 13.9543 13.0155 13.924C13.0029 13.8945 12.9937 13.8636 12.9874 13.8319C12.9811 13.8003 12.9775 13.768 12.9775 13.7363C12.9775 13.6062 13.0303 13.4797 13.1217 13.3883C13.1442 13.3651 13.1695 13.3447 13.1962 13.3271C13.2229 13.3088 13.2518 13.294 13.2813 13.2814C13.3108 13.2694 13.3418 13.2596 13.3734 13.2533C13.5337 13.2216 13.7032 13.2737 13.8178 13.3883C13.9092 13.4797 13.9619 13.6062 13.9619 13.7363C13.9619 13.768 13.9584 13.8003 13.9521 13.8319C13.9457 13.8636 13.9366 13.8945 13.9239 13.924C13.912 13.9543 13.8965 13.9824 13.8789 14.0091C13.8607 14.0365 13.8403 14.0612 13.8178 14.0844C13.7953 14.1069 13.77 14.1272 13.7425 14.1455C13.7165 14.1631 13.6877 14.1786 13.6582 14.1905C13.6279 14.2032 13.597 14.2123 13.5661 14.2187C13.5344 14.225 13.5021 14.2285 13.4697 14.2285Z" fill="white"/>
<path d="M15.3076 14.2279C15.2753 14.2279 15.2429 14.2244 15.2113 14.2181C15.1796 14.2117 15.1487 14.2026 15.1192 14.1899C15.0896 14.178 15.0608 14.1625 15.0341 14.1449C15.0074 14.1266 14.9821 14.1063 14.9596 14.0838C14.8675 13.9916 14.8154 13.8651 14.8154 13.7357C14.8154 13.6056 14.8675 13.4791 14.9596 13.3877C14.9821 13.3645 15.0074 13.3441 15.0341 13.3265C15.0608 13.3082 15.0896 13.2934 15.1192 13.2808C15.1487 13.2688 15.1796 13.259 15.2113 13.2527C15.2746 13.24 15.34 13.24 15.4039 13.2527C15.4349 13.259 15.4658 13.2688 15.4954 13.2808C15.5256 13.2934 15.5537 13.3082 15.5804 13.3265C15.6079 13.3441 15.6325 13.3645 15.6557 13.3877C15.7471 13.4791 15.7998 13.6056 15.7998 13.7357C15.7998 13.8651 15.7471 13.9916 15.6557 14.0838C15.6325 14.1063 15.6079 14.1266 15.5804 14.1449C15.5537 14.1625 15.5256 14.178 15.4954 14.1899C15.4658 14.2026 15.4349 14.2117 15.4039 14.2181C15.3716 14.2244 15.3393 14.2279 15.3076 14.2279Z" fill="white"/>
</svg>
