<svg width="36" height="36" viewBox="0 0 36 36" fill="none" xmlns="http://www.w3.org/2000/svg">
<path d="M18.2578 30.1118C17.9857 30.1118 17.7656 29.8918 17.7656 29.6196C17.7656 29.3475 17.9857 29.1275 18.2578 29.1275C20.202 29.1275 22.0294 28.3702 23.4047 26.9949L27.3309 23.0686C28.1128 22.2867 28.1128 21.0148 27.3309 20.2329L26.066 18.968C25.8741 18.776 25.8741 18.4638 26.066 18.2719C26.258 18.0799 26.5702 18.0799 26.7621 18.2719L28.027 19.5368C29.1928 20.7026 29.1928 22.5989 28.027 23.7647L24.1008 27.691C22.5391 29.2519 20.4642 30.1118 18.2578 30.1118Z" fill="white"/>
<path d="M25.2256 17.9234C25.0962 17.9234 24.9689 17.8706 24.8775 17.7792C24.855 17.7567 24.8339 17.7314 24.8164 17.7047C24.7988 17.678 24.7833 17.6492 24.7714 17.6196C24.7587 17.5901 24.7496 17.5592 24.7432 17.5275C24.7369 17.4959 24.7334 17.4635 24.7334 17.4312C24.7334 17.3988 24.7369 17.3665 24.7432 17.3349C24.7496 17.3039 24.7587 17.273 24.7714 17.2428C24.7833 17.2132 24.7988 17.1844 24.8164 17.1577C24.8339 17.131 24.855 17.1056 24.8775 17.0831C24.9921 16.9692 25.1616 16.9165 25.3219 16.9488C25.3529 16.9552 25.3845 16.9643 25.414 16.977C25.4436 16.9889 25.4724 17.0044 25.4991 17.022C25.5258 17.0403 25.5511 17.0606 25.5736 17.0831C25.5961 17.1056 25.6165 17.131 25.6348 17.1577C25.6524 17.1844 25.6679 17.2132 25.6798 17.2428C25.6925 17.273 25.7016 17.3039 25.7079 17.3349C25.7143 17.3665 25.7178 17.3988 25.7178 17.4312C25.7178 17.4635 25.7143 17.4959 25.7079 17.5275C25.7016 17.5592 25.6925 17.5901 25.6798 17.6196C25.6679 17.6492 25.6524 17.678 25.6348 17.7047C25.6165 17.7314 25.5961 17.7567 25.5736 17.7792C25.5511 17.8017 25.5258 17.8228 25.4991 17.8404C25.4724 17.858 25.4436 17.8735 25.414 17.8854C25.3845 17.8981 25.3529 17.9072 25.3219 17.9135C25.2903 17.9199 25.2579 17.9234 25.2256 17.9234Z" fill="white"/>
<path d="M16.5474 31.8204C16.4216 31.8204 16.2957 31.7726 16.1994 31.6762L10.7973 26.2741C10.6053 26.0822 10.6053 25.77 10.7973 25.578L12.6613 23.714V20.145C12.6613 19.7611 12.811 19.4004 13.0824 19.129L16.2465 15.9649C16.5179 15.6935 16.8786 15.5437 17.2625 15.5437H18.6434L19.2249 14.9622C19.2734 14.9137 19.3184 14.8715 19.3635 14.8329C20.5433 13.7915 22.3384 13.8485 23.4528 14.9622L24.5026 16.012C24.6945 16.204 24.6945 16.5161 24.5026 16.7081C24.3106 16.9001 23.9984 16.9001 23.8065 16.7081L22.7567 15.6583C22.0093 14.9109 20.8034 14.8729 20.0124 15.5733C20.0103 15.5754 20.0082 15.5768 20.0061 15.5789C19.9801 15.6007 19.9513 15.6281 19.9203 15.659L19.1947 16.3847C19.1026 16.4768 18.9774 16.5288 18.8467 16.5288H17.2625C17.1416 16.5288 17.0284 16.5759 16.9426 16.6617L13.7785 19.8258C13.6928 19.9115 13.6456 20.0247 13.6456 20.1457V23.9179C13.6456 24.0487 13.5936 24.1739 13.5015 24.266L11.8414 25.9261L16.8955 30.9801C17.0874 31.1721 17.0874 31.4843 16.8955 31.6762C16.7999 31.7726 16.674 31.8204 16.5474 31.8204Z" fill="white"/>
<path d="M15.4416 35.0515C15.3158 35.0515 15.1899 35.0037 15.0936 34.9074L7.41057 27.225C7.21861 27.0331 7.21861 26.7209 7.41057 26.5289L9.5797 24.3598C9.77166 24.1678 10.0838 24.1678 10.2758 24.3598L17.9588 32.0428C18.1508 32.2348 18.1508 32.547 17.9588 32.7389L15.7897 34.9081C15.6934 35.0037 15.5675 35.0515 15.4416 35.0515ZM8.45471 26.877L15.4416 33.8639L16.9147 32.3909L9.92775 25.4039L8.45471 26.877Z" fill="white"/>
<path d="M8.6709 10.4971C8.54152 10.4971 8.41426 10.4443 8.32285 10.3529C8.23145 10.2615 8.17871 10.135 8.17871 10.0049C8.17871 9.87551 8.23145 9.74824 8.32285 9.65684C8.41426 9.56543 8.54152 9.5127 8.6709 9.5127C8.80098 9.5127 8.92754 9.56543 9.01895 9.65684C9.11035 9.74824 9.16309 9.87551 9.16309 10.0049C9.16309 10.1343 9.11035 10.2615 9.01895 10.3529C8.92754 10.4443 8.80098 10.4971 8.6709 10.4971Z" fill="white"/>
<path d="M12.3748 17.3551C12.249 17.3551 12.1231 17.3073 12.0268 17.211L10.4975 15.6817C10.3055 15.4897 10.3055 15.1775 10.4975 14.9856L16.3967 9.08635C16.5886 8.89439 16.9008 8.89439 17.0928 9.08635L18.6221 10.6156C18.814 10.8076 18.814 11.1198 18.6221 11.3117L12.7229 17.211C12.6265 17.3073 12.5007 17.3551 12.3748 17.3551ZM11.5409 15.3336L12.3741 16.1668L17.5772 10.9637L16.744 10.1305L11.5409 15.3336Z" fill="white"/>
<path d="M15.5906 17.8087C15.4696 17.8087 15.3487 17.7644 15.2545 17.6758L13.3596 15.9004C13.2625 15.809 13.2063 15.6825 13.2042 15.5496C13.2021 15.416 13.2541 15.288 13.3483 15.1938L16.6052 11.9369C16.7971 11.745 17.1093 11.745 17.3013 11.9369C17.4932 12.1289 17.4932 12.4411 17.3013 12.633L14.4037 15.5306L15.58 16.6324L16.2473 15.9651C16.5187 15.6937 16.8794 15.544 17.2633 15.544H18.6442L18.9993 15.1889L17.7246 13.8276C17.5389 13.6294 17.5488 13.3179 17.7471 13.1322C17.9453 12.9466 18.2568 12.9565 18.4424 13.1547L20.0463 14.8676C20.1384 14.966 20.1862 15.0968 20.1785 15.2311C20.1707 15.3654 20.1089 15.4905 20.0069 15.5777C19.9809 15.5995 19.9521 15.6269 19.9211 15.6579L19.1955 16.3835C19.1034 16.4756 18.9782 16.5276 18.8474 16.5276H17.2633C17.1424 16.5276 17.0292 16.5747 16.9434 16.6605L15.9393 17.6646C15.8423 17.7609 15.7164 17.8087 15.5906 17.8087Z" fill="white"/>
<path d="M28.6352 30.0237C28.5143 30.0237 28.3934 29.9794 28.2991 29.8908L26.0506 27.785C25.8523 27.5994 25.8417 27.2879 26.0281 27.0896C26.2137 26.8913 26.5252 26.8808 26.7234 27.0671L28.6247 28.8474L30.258 27.2148L27.5109 24.2806L25.3313 26.4603C25.1393 26.6523 24.8271 26.6523 24.6352 26.4603C24.4432 26.2683 24.4432 25.9562 24.6352 25.7642L27.1742 23.2252C27.2684 23.131 27.3963 23.0797 27.5299 23.0811C27.6635 23.0832 27.7901 23.1394 27.8808 23.2365L31.3008 26.8899C31.4822 27.084 31.4773 27.3863 31.2895 27.5741L28.9826 29.8803C28.8877 29.9759 28.7618 30.0237 28.6352 30.0237Z" fill="white"/>
<path d="M6.62007 20.0498C6.48929 20.0498 6.36413 19.9978 6.27132 19.905L6.25585 19.8895C4.00444 17.6381 4.00444 13.9748 6.25655 11.7234L7.22194 10.758C7.4139 10.5661 7.72608 10.5661 7.91804 10.758C8.10999 10.95 8.10999 11.2622 7.91804 11.4541L6.95265 12.4195C5.19694 14.1752 5.09147 16.9652 6.63624 18.8454L17.6134 7.86818L14.5583 4.81311L10.1912 9.18022C9.99929 9.37217 9.6871 9.37217 9.49515 9.18022C9.30319 8.98826 9.30319 8.67607 9.49515 8.48412L14.2103 3.76896C14.4023 3.57701 14.7144 3.57701 14.9064 3.76896L18.6576 7.52014C18.7497 7.61225 18.8017 7.7374 18.8017 7.86818C18.8017 7.99897 18.7497 8.12412 18.6576 8.21623L6.96811 19.9057C6.87601 19.9978 6.75085 20.0498 6.62007 20.0498Z" fill="white"/>
<path d="M19.9855 10.0354C19.8547 10.0354 19.7296 9.98339 19.6374 9.89128L12.7426 2.99644C12.5506 2.80449 12.5506 2.4923 12.7426 2.30035L13.3733 1.66965C14.3352 0.707774 15.9003 0.707774 16.8622 1.66965L20.9642 5.77168C21.4304 6.23785 21.687 6.8573 21.687 7.51613C21.687 8.17496 21.4304 8.79441 20.9642 9.26058L20.3335 9.89128C20.2414 9.98339 20.1163 10.0354 19.9855 10.0354ZM13.7867 2.6484L19.9855 8.84714L20.2681 8.56449C20.548 8.28464 20.7027 7.91199 20.7027 7.51613C20.7027 7.12027 20.5487 6.74761 20.2681 6.46777L16.1661 2.36574C15.5881 1.78777 14.6474 1.78777 14.0694 2.36574L13.7867 2.6484Z" fill="white"/>
</svg>
