<svg width="36" height="36" viewBox="0 0 36 36" fill="none" xmlns="http://www.w3.org/2000/svg">
<path d="M8.51484 28.5006C8.24273 28.5006 8.02266 28.2805 8.02266 28.0084C8.02266 26.3293 6.65719 24.9638 4.97813 24.9638C3.29906 24.9638 1.93359 26.3293 1.93359 28.0084C1.93359 28.2805 1.71352 28.5006 1.44141 28.5006C1.1693 28.5006 0.949219 28.2805 0.949219 28.0084V7.9918C0.949219 5.76992 2.75625 3.96289 4.97813 3.96289C7.2 3.96289 9.00703 5.76992 9.00703 7.9918V28.0084C9.00703 28.2805 8.78695 28.5006 8.51484 28.5006ZM4.97813 23.9795C6.19242 23.9795 7.28367 24.5195 8.02266 25.3724V7.9918C8.02266 6.31274 6.65719 4.94727 4.97813 4.94727C3.29906 4.94727 1.93359 6.31274 1.93359 7.9918V25.3724C2.67258 24.5195 3.76383 23.9795 4.97813 23.9795Z" fill="white"/>
<path d="M34.5586 32.0377C34.2865 32.0377 34.0664 31.8176 34.0664 31.5455V8.48438H9.00703V28.0088C9.00703 28.2809 8.78695 28.5009 8.51484 28.5009C8.24273 28.5009 8.02266 28.2809 8.02266 28.0088C8.02266 26.3297 6.65719 24.9642 4.97813 24.9642C3.29906 24.9642 1.93359 26.3297 1.93359 28.0088C1.93359 29.6878 3.29906 31.0533 4.97813 31.0533H31.744C32.0161 31.0533 32.2362 31.2734 32.2362 31.5455C32.2362 31.8176 32.0161 32.0377 31.744 32.0377H4.97813C2.75695 32.0377 0.949219 30.2306 0.949219 28.0088C0.949219 25.7869 2.75695 23.9798 4.97813 23.9798C6.19242 23.9798 7.28367 24.5198 8.02266 25.3727V7.99219C8.02266 7.72008 8.24273 7.5 8.51484 7.5H34.5586C34.8307 7.5 35.0508 7.72008 35.0508 7.99219V31.5455C35.0508 31.8176 34.8307 32.0377 34.5586 32.0377Z" fill="white"/>
<path d="M15.9824 16.5712H11.1709C10.8988 16.5712 10.6787 16.3512 10.6787 16.0791V11.2676C10.6787 10.9955 10.8988 10.7754 11.1709 10.7754H15.9824C16.2545 10.7754 16.4746 10.9955 16.4746 11.2676V16.0791C16.4746 16.3512 16.2538 16.5712 15.9824 16.5712ZM11.6631 15.5869H15.4902V11.7598H11.6631V15.5869Z" fill="white"/>
<path d="M20.147 28.5279H16.5027C16.2306 28.5279 16.0105 28.3078 16.0105 28.0357C16.0105 27.7636 16.2306 27.5435 16.5027 27.5435H19.6548V19.5518H11.6631V27.5435H12.3198C12.5919 27.5435 12.812 27.7636 12.812 28.0357C12.812 28.3078 12.5919 28.5279 12.3198 28.5279H11.1709C10.8988 28.5279 10.6787 28.3078 10.6787 28.0357V19.0596C10.6787 18.7875 10.8988 18.5674 11.1709 18.5674H20.147C20.4191 18.5674 20.6392 18.7875 20.6392 19.0596V28.0357C20.6392 28.3071 20.4191 28.5279 20.147 28.5279Z" fill="white"/>
<path d="M14.1777 28.5283C14.0477 28.5283 13.9211 28.4756 13.8297 28.3842C13.8072 28.361 13.7861 28.3364 13.7685 28.3089C13.7509 28.2822 13.7355 28.2541 13.7228 28.2239C13.7109 28.1943 13.7017 28.1634 13.6954 28.1318C13.6884 28.1001 13.6855 28.0678 13.6855 28.0361C13.6855 28.0038 13.6884 27.9714 13.6954 27.9398C13.7017 27.9082 13.7109 27.8772 13.7228 27.8477C13.7355 27.8182 13.7509 27.7893 13.7685 27.7626C13.7861 27.7359 13.8072 27.7106 13.8297 27.6881C13.9211 27.596 14.0477 27.5439 14.1777 27.5439C14.3071 27.5439 14.4337 27.596 14.5258 27.6881C14.5483 27.7106 14.5687 27.7359 14.587 27.7626C14.6045 27.7893 14.62 27.8182 14.632 27.8477C14.6446 27.8772 14.6538 27.9082 14.6601 27.9398C14.6664 27.9714 14.6699 28.0038 14.6699 28.0361C14.6699 28.0678 14.6664 28.1001 14.6601 28.1318C14.6538 28.1634 14.6446 28.1943 14.632 28.2239C14.62 28.2541 14.6045 28.2822 14.587 28.3089C14.5687 28.3364 14.5483 28.361 14.5258 28.3842C14.4337 28.4756 14.3071 28.5283 14.1777 28.5283Z" fill="white"/>
<path d="M30.7027 16.5712H18C17.7279 16.5712 17.5078 16.3512 17.5078 16.0791V11.2676C17.5078 10.9955 17.7279 10.7754 18 10.7754H24.2156C24.4877 10.7754 24.7078 10.9955 24.7078 11.2676C24.7078 11.5397 24.4877 11.7598 24.2156 11.7598H18.4922V15.5869H30.2105V11.7598H27.938C27.6659 11.7598 27.4458 11.5397 27.4458 11.2676C27.4458 10.9955 27.6659 10.7754 27.938 10.7754H30.7027C30.9748 10.7754 31.1948 10.9955 31.1948 11.2676V16.0791C31.1948 16.3512 30.9748 16.5712 30.7027 16.5712Z" fill="white"/>
<path d="M25.9636 11.7609C25.9313 11.7609 25.8989 11.7574 25.8673 11.7511C25.8356 11.7447 25.8047 11.7356 25.7752 11.7229C25.7456 11.711 25.7168 11.6955 25.6901 11.6779C25.6634 11.6597 25.638 11.6393 25.6155 11.6168C25.5923 11.5936 25.572 11.569 25.5544 11.5415C25.5361 11.5148 25.5213 11.4867 25.5087 11.4572C25.4967 11.4269 25.4869 11.396 25.4805 11.3651C25.4742 11.3327 25.4707 11.3004 25.4707 11.2687C25.4707 11.2364 25.4742 11.204 25.4805 11.1724C25.4869 11.1408 25.4967 11.1098 25.5087 11.0803C25.5213 11.0508 25.5361 11.0219 25.5544 10.9952C25.572 10.9685 25.5923 10.9432 25.6155 10.9207C25.638 10.8982 25.6634 10.8771 25.6901 10.8595C25.7168 10.8419 25.7456 10.8265 25.7752 10.8138C25.8047 10.8019 25.8356 10.7927 25.8673 10.7864C25.9305 10.773 25.9959 10.773 26.0592 10.7864C26.0909 10.7927 26.1218 10.8019 26.1513 10.8138C26.1809 10.8265 26.2097 10.8419 26.2364 10.8595C26.2631 10.8771 26.2884 10.8982 26.3109 10.9207C26.3341 10.9432 26.3545 10.9685 26.3728 10.9952C26.3904 11.0219 26.4052 11.0508 26.4178 11.0803C26.4298 11.1098 26.4396 11.1408 26.4459 11.1724C26.4523 11.204 26.4551 11.2364 26.4551 11.2687C26.4551 11.3004 26.4523 11.3327 26.4459 11.3651C26.4396 11.396 26.4298 11.4269 26.4178 11.4572C26.4052 11.4867 26.3904 11.5148 26.3728 11.5415C26.3545 11.569 26.3341 11.5936 26.3109 11.6168C26.2884 11.6393 26.2631 11.6597 26.2364 11.6779C26.2097 11.6955 26.1809 11.711 26.1513 11.7229C26.1218 11.7356 26.0909 11.7447 26.0592 11.7511C26.0276 11.7574 25.9952 11.7609 25.9636 11.7609Z" fill="white"/>
<path d="M25.8912 28.7606H23.1982C22.9261 28.7606 22.7061 28.5405 22.7061 28.2684V19.0596C22.7061 18.7875 22.9261 18.5674 23.1982 18.5674H25.8912C26.1633 18.5674 26.3834 18.7875 26.3834 19.0596V28.2691C26.3834 28.5405 26.1633 28.7606 25.8912 28.7606ZM23.6911 27.7762H25.3997V19.5518H23.6911V27.7762Z" fill="white"/>
<path d="M30.7027 28.7606H28.0098C27.7377 28.7606 27.5176 28.5405 27.5176 28.2684V19.0596C27.5176 18.7875 27.7377 18.5674 28.0098 18.5674H30.7027C30.9748 18.5674 31.1949 18.7875 31.1949 19.0596V28.2691C31.1949 28.5405 30.9748 28.7606 30.7027 28.7606ZM28.502 27.7762H30.2105V19.5518H28.502V27.7762Z" fill="white"/>
<path d="M4.76758 22.1393C4.49547 22.1393 4.27539 21.9192 4.27539 21.6471V8.53027C4.27539 8.25816 4.49547 8.03809 4.76758 8.03809C5.03969 8.03809 5.25977 8.25816 5.25977 8.53027V21.6471C5.25977 21.9192 5.03898 22.1393 4.76758 22.1393Z" fill="white"/>
<path d="M4.76758 7.46971C4.6375 7.46971 4.51094 7.41697 4.41953 7.32557C4.32812 7.23346 4.27539 7.10689 4.27539 6.97752C4.27539 6.84744 4.32812 6.72088 4.41953 6.62947C4.53344 6.51486 4.70359 6.46283 4.86391 6.49447C4.89484 6.5008 4.92578 6.51064 4.95602 6.5226C4.98555 6.53525 5.01367 6.55002 5.04039 6.5683C5.06781 6.58588 5.09312 6.60627 5.11562 6.62947C5.20703 6.72088 5.25977 6.84744 5.25977 6.97752C5.25977 7.10689 5.20703 7.23346 5.11562 7.32557C5.09312 7.34807 5.06781 7.36846 5.04039 7.38674C5.01367 7.40432 4.98555 7.41979 4.95602 7.43174C4.92578 7.44439 4.89484 7.45354 4.86391 7.45986C4.83227 7.46619 4.79992 7.46971 4.76758 7.46971Z" fill="white"/>
</svg>
