<svg width="36" height="36" viewBox="0 0 36 36" fill="none" xmlns="http://www.w3.org/2000/svg">
<path d="M11.79 35.0504C11.7577 35.0504 11.7254 35.0469 11.6937 35.0406C11.6628 35.0343 11.6318 35.0251 11.6016 35.0125C11.5721 35.0005 11.5432 34.9851 11.5172 34.9675C11.4898 34.9492 11.4645 34.9288 11.442 34.9063C11.3506 34.8149 11.2979 34.6876 11.2979 34.5582C11.2979 34.5259 11.3014 34.4936 11.3077 34.4619C11.314 34.431 11.3232 34.4 11.3358 34.3698C11.3478 34.3403 11.3632 34.3114 11.3808 34.2847C11.3991 34.258 11.4195 34.2327 11.442 34.2102C11.4645 34.1877 11.4898 34.1666 11.5165 34.149C11.5432 34.1314 11.5721 34.116 11.6016 34.104C11.6311 34.0914 11.6628 34.0822 11.6937 34.0759C11.757 34.0632 11.8231 34.0632 11.8864 34.0759C11.918 34.0822 11.9489 34.0914 11.9785 34.104C12.008 34.116 12.0368 34.1314 12.0636 34.149C12.0903 34.1666 12.1156 34.1877 12.1381 34.2102C12.1606 34.2327 12.1817 34.258 12.1993 34.2847C12.2168 34.3114 12.2323 34.3403 12.2443 34.3698C12.2569 34.4 12.2661 34.431 12.2724 34.4619C12.2787 34.4936 12.2822 34.5259 12.2822 34.5582C12.2822 34.6876 12.2295 34.8149 12.1381 34.9063C12.1156 34.9288 12.0903 34.9492 12.0636 34.9675C12.0368 34.9851 12.008 35.0005 11.9785 35.0125C11.9489 35.0251 11.918 35.0343 11.8864 35.0406C11.8547 35.0469 11.8224 35.0504 11.79 35.0504Z" fill="white"/>
<path d="M32.0139 13.6943H30.4551C30.183 13.6943 29.9629 13.4743 29.9629 13.2021C29.9629 12.93 30.183 12.71 30.4551 12.71H32.0139C32.286 12.71 32.5061 12.93 32.5061 13.2021C32.5061 13.4743 32.286 13.6943 32.0139 13.6943Z" fill="white"/>
<path d="M32.0139 17.2979H30.4551C30.183 17.2979 29.9629 17.0778 29.9629 16.8057C29.9629 16.5336 30.183 16.3135 30.4551 16.3135H32.0139C32.286 16.3135 32.5061 16.5336 32.5061 16.8057C32.5061 17.0778 32.286 17.2979 32.0139 17.2979Z" fill="white"/>
<path d="M32.0139 20.9014H30.4551C30.183 20.9014 29.9629 20.6813 29.9629 20.4092C29.9629 20.1371 30.183 19.917 30.4551 19.917H32.0139C32.286 19.917 32.5061 20.1371 32.5061 20.4092C32.5061 20.6813 32.286 20.9014 32.0139 20.9014Z" fill="white"/>
<path d="M32.0139 24.5039H30.4551C30.183 24.5039 29.9629 24.2838 29.9629 24.0117C29.9629 23.7396 30.183 23.5195 30.4551 23.5195H32.0139C32.286 23.5195 32.5061 23.7396 32.5061 24.0117C32.5061 24.2838 32.286 24.5039 32.0139 24.5039Z" fill="white"/>
<path d="M32.0139 28.1074H30.4551C30.183 28.1074 29.9629 27.8873 29.9629 27.6152C29.9629 27.3431 30.183 27.123 30.4551 27.123H32.0139C32.286 27.123 32.5061 27.3431 32.5061 27.6152C32.5061 27.8873 32.286 28.1074 32.0139 28.1074Z" fill="white"/>
<path d="M32.0139 31.7109H30.4551C30.183 31.7109 29.9629 31.4909 29.9629 31.2188C29.9629 30.9466 30.183 30.7266 30.4551 30.7266H32.0139C32.286 30.7266 32.5061 30.9466 32.5061 31.2188C32.5061 31.4909 32.286 31.7109 32.0139 31.7109Z" fill="white"/>
<path d="M26.6539 29.691C26.3817 29.691 26.1617 29.4709 26.1617 29.1988V21.4454L18.9012 28.7066H24.15C24.4221 28.7066 24.6422 28.9267 24.6422 29.1988C24.6422 29.4709 24.4221 29.691 24.15 29.691H17.7129C17.5139 29.691 17.3346 29.5707 17.258 29.3872C17.1821 29.203 17.2242 28.9913 17.3649 28.8507L26.3058 19.9098C26.4464 19.7692 26.6581 19.727 26.8423 19.8029C27.0265 19.8789 27.146 20.0589 27.146 20.2578V29.1988C27.146 29.4702 26.926 29.691 26.6539 29.691Z" fill="white"/>
<path d="M32.0137 35.0508H13.3963C13.1242 35.0508 12.9041 34.8307 12.9041 34.5586C12.9041 34.2865 13.1242 34.0664 13.3963 34.0664H31.5215V8.50499L5.96077 34.0664H10.1022C10.3743 34.0664 10.5944 34.2865 10.5944 34.5586C10.5944 34.8307 10.3743 35.0508 10.1022 35.0508H4.77249C4.57351 35.0508 4.39421 34.9305 4.31757 34.747C4.24163 34.5628 4.28382 34.3512 4.42444 34.2105L31.6656 6.96936C31.8063 6.82874 32.0179 6.78655 32.2021 6.86249C32.3863 6.93843 32.5059 7.11843 32.5059 7.31741V34.5586C32.5059 34.8307 32.2858 35.0508 32.0137 35.0508Z" fill="white"/>
<path d="M26.8614 7.70735C26.7566 7.70735 26.6511 7.6743 26.5625 7.6061C26.3769 7.46407 26.3178 7.21235 26.4163 7.00423C26.4767 6.85798 26.604 6.74899 26.7587 6.71313C26.9246 6.67446 27.099 6.72368 27.2192 6.84462L27.2256 6.85095C27.4175 7.0429 27.4175 7.35509 27.2256 7.54704L27.2094 7.56321C27.1138 7.65884 26.9879 7.70735 26.8614 7.70735Z" fill="white"/>
<path d="M7.1118 26.8141C6.58867 26.8141 6.06625 26.6151 5.66828 26.2171L4.13406 24.6829C3.33813 23.887 3.33813 22.5918 4.13406 21.7959L5.50094 20.429C5.69289 20.237 6.00508 20.237 6.19703 20.429C6.38898 20.6209 6.38898 20.9331 6.19703 21.1251L4.83016 22.492C4.41812 22.904 4.41812 23.5748 4.83016 23.9868L6.36437 25.521C6.77641 25.9331 7.44719 25.9331 7.85922 25.521L25.341 8.03923C25.0837 7.95063 24.8432 7.80368 24.64 7.60118C24.2828 7.244 24.088 6.7504 24.1056 6.24556C23.6015 6.26314 23.1079 6.06837 22.75 5.71118C22.5468 5.50798 22.3998 5.26751 22.3113 5.01017L7.57938 19.7427C7.38742 19.9347 7.07523 19.9347 6.88328 19.7427C6.69133 19.5508 6.69133 19.2386 6.88328 19.0466L22.5524 3.37751C22.7289 3.20103 23.0087 3.18486 23.2042 3.33884C23.4004 3.49283 23.4503 3.76915 23.3202 3.9815C23.1177 4.31407 23.1698 4.73946 23.4461 5.01579C23.6148 5.18454 23.8391 5.27314 24.0775 5.26259C24.3475 5.25134 24.6119 5.3547 24.8038 5.54665C24.9965 5.73861 25.1005 6.00368 25.0893 6.27439C25.0795 6.51345 25.1666 6.73704 25.3361 6.9065C25.6117 7.18212 26.0364 7.23415 26.369 7.03306C26.582 6.90439 26.8577 6.95501 27.0109 7.15048C27.1642 7.34665 27.1473 7.62579 26.9716 7.80228L8.55531 26.2171C8.15734 26.6151 7.63492 26.8141 7.1118 26.8141Z" fill="white"/>
<path d="M7.71174 23.132C7.58588 23.132 7.46002 23.0842 7.36369 22.9879C7.17174 22.796 7.17174 22.4838 7.36369 22.2918L21.3699 8.28557C21.5619 8.09361 21.8741 8.09361 22.066 8.28557C22.258 8.47752 22.258 8.78971 22.066 8.98166L8.05979 22.9879C7.96416 23.0835 7.8383 23.132 7.71174 23.132Z" fill="white"/>
<path d="M22.8896 7.95469C22.858 7.95469 22.8257 7.95117 22.794 7.94485C22.7624 7.93852 22.7314 7.92938 22.7019 7.91672C22.6717 7.90477 22.6436 7.8893 22.6168 7.87172C22.5894 7.85344 22.5648 7.83305 22.5416 7.81055C22.4502 7.71844 22.3975 7.59188 22.3975 7.4625C22.3975 7.43016 22.401 7.39782 22.4073 7.36618C22.4136 7.33454 22.4235 7.3036 22.4354 7.27407C22.4474 7.24454 22.4629 7.21571 22.4804 7.18899C22.4987 7.16227 22.5191 7.13696 22.5416 7.11446C22.5648 7.09196 22.5894 7.07086 22.6168 7.05329C22.6436 7.03571 22.6717 7.02024 22.7019 7.00829C22.7314 6.99563 22.7624 6.98649 22.794 6.98016C22.9536 6.94782 23.1238 6.99985 23.2377 7.11446C23.2609 7.13696 23.2813 7.16227 23.2989 7.18899C23.3171 7.21571 23.3319 7.24454 23.3446 7.27407C23.3565 7.3036 23.3664 7.33454 23.3727 7.36618C23.379 7.39782 23.3818 7.43016 23.3818 7.4625C23.3818 7.59188 23.3298 7.71844 23.2377 7.81055C23.1463 7.90196 23.0197 7.95469 22.8896 7.95469Z" fill="white"/>
<path d="M7.11189 26.8571C6.61549 26.8571 6.11908 26.6679 5.7408 26.2904L4.06103 24.6106C3.30518 23.8547 3.30518 22.625 4.06103 21.8691L5.50103 20.4291C5.69299 20.2372 6.00517 20.2372 6.19713 20.4291L9.92228 24.1543C10.1142 24.3462 10.1142 24.6584 9.92228 24.8504L8.48228 26.2904C8.1047 26.6679 7.6083 26.8571 7.11189 26.8571ZM6.43689 25.5936C6.80885 25.9655 7.41424 25.9655 7.78619 25.5936L8.87814 24.5016L5.84908 21.4726L4.75713 22.5645C4.38518 22.9365 4.38518 23.5418 4.75713 23.9138L6.43689 25.5936Z" fill="white"/>
<path d="M25.9319 8.13782C25.4594 8.13782 24.9933 7.9543 24.6403 7.60133C24.2831 7.24414 24.0883 6.75055 24.1059 6.24571C23.6011 6.26258 23.1082 6.06852 22.7503 5.71133C22.1519 5.11297 22.0408 4.19117 22.4796 3.46906C22.5049 3.42758 22.5309 3.38961 22.5576 3.35164C22.6497 3.22297 22.7728 3.11961 22.9148 3.0493C22.9345 3.03946 22.9549 3.03031 22.9753 3.02258C23.0308 2.99938 23.0885 2.9811 23.149 2.96914L28.7444 0.977892C28.923 0.913908 29.1234 0.958908 29.2577 1.09391C29.392 1.22891 29.437 1.42789 29.3737 1.60719L27.3811 7.20477C27.3691 7.26243 27.3516 7.31868 27.3298 7.37211C27.3206 7.39602 27.3108 7.41922 27.2988 7.44102C27.2299 7.57954 27.1287 7.70047 27.0056 7.79047C26.9648 7.8193 26.9262 7.84532 26.8833 7.87204C26.5865 8.05063 26.2582 8.13782 25.9319 8.13782ZM24.1179 5.26133C24.3731 5.26133 24.622 5.36399 24.8041 5.5461C24.9968 5.73805 25.1008 6.00313 25.0896 6.27383C25.0797 6.5129 25.1669 6.73649 25.3364 6.90594C25.612 7.18157 26.0367 7.2336 26.3693 7.0325C26.3833 7.02336 26.4009 7.01211 26.4192 7.00016C26.4241 6.96993 26.4312 6.93969 26.4417 6.91086L28.0997 2.25336L23.4415 3.91133C23.4126 3.92188 23.3831 3.92891 23.3529 3.93383C23.3416 3.95 23.3304 3.96688 23.3198 3.98446C23.1187 4.31492 23.1701 4.74032 23.4464 5.01664C23.6151 5.18539 23.8401 5.27328 24.0778 5.26344C24.0912 5.26133 24.1045 5.26133 24.1179 5.26133Z" fill="white"/>
<path d="M27.8878 4.8058C27.762 4.8058 27.6361 4.75799 27.5398 4.66166L25.6899 2.81174C25.4979 2.61979 25.4979 2.3076 25.6899 2.11564C25.8818 1.92369 26.194 1.92369 26.386 2.11564L28.2359 3.96557C28.4278 4.15752 28.4278 4.46971 28.2359 4.66166C28.1395 4.75799 28.0137 4.8058 27.8878 4.8058Z" fill="white"/>
</svg>
